<svg xmlns="http://www.w3.org/2000/svg" viewBox="0 0 96 96">
  <rect x="17" y="43" width="62" height="36" rx="8" fill="#fff3f8"/>
  <path d="M17 56h62v15a8 8 0 0 1-8 8H25a8 8 0 0 1-8-8z" fill="#ffd3e4"/>
  <path d="M16 44h64v16H16z" fill="#f08fba"/>
  <path d="M48 44v35" stroke="#b85a84" stroke-width="5"/>
  <path d="M16 58h64" stroke="#b85a84" stroke-width="4"/>
  <path d="M48 40c-8-9-19-7-21 1-2 9 12 10 21 3 9 7 23 6 21-3-2-8-13-10-21-1z" fill="#fff3f8" stroke="#b85a84" stroke-width="4" stroke-linejoin="round"/>
  <path d="M48 21c8 8 8 16 0 22-8-6-8-14 0-22z" fill="#ffd166"/>
  <path d="M48 22c-2 8 0 14 6 18" fill="none" stroke="#f29f05" stroke-width="3" stroke-linecap="round"/>
</svg>
