<svg xmlns="http://www.w3.org/2000/svg" viewBox="0 0 96 96" role="img" aria-label="Pizza">
  <path fill="#f6c85f" d="M18 14c21 2 42 10 62 25L39 86 18 14z"/>
  <path fill="#d67b38" d="M18 14c21 2 42 10 62 25l-6 7C57 33 39 26 21 24l-3-10z"/>
  <path fill="#f3ead3" d="M21 24c18 2 36 9 53 22l-35 40-18-62z"/>
  <path fill="#d9493f" d="M36 42a7 7 0 1 0 0-14 7 7 0 0 0 0 14zm19 18a6 6 0 1 0 0-12 6 6 0 0 0 0 12zm-18 7a5 5 0 1 0 0-10 5 5 0 0 0 0 10z"/>
  <path fill="#8cc04d" d="M51 36c4-6 10-5 12 1-5 3-9 3-12-1zm-20 17c2-6 8-8 13-4-2 5-7 7-13 4z"/>
  <path fill="#f8d86d" d="M46 47c2 0 4 2 4 4s-2 4-4 4-4-2-4-4 2-4 4-4zm11-16c2 0 4 2 4 4s-2 4-4 4-4-2-4-4 2-4 4-4z"/>
</svg>
