<svg xmlns="http://www.w3.org/2000/svg" width="1150" height="1409" viewBox="0 0 1150 1409">
<title>Background removed vector logo</title>
<g shape-rendering="geometricPrecision">
<path d="M 40.0 42.0 L 40.0 1065.0 L 42.0 1088.0 L 50.0 1116.0 L 61.0 1139.0 L 76.0 1160.0 L 105.0 1186.0 L 140.0 1206.0 L 193.0 1225.0 L 360.0 1269.0 L 472.0 1305.0 L 519.0 1325.0 L 544.0 1339.0 L 560.0 1351.0 L 574.0 1368.0 L 591.0 1349.0 L 613.0 1334.0 L 651.0 1315.0 L 687.0 1301.0 L 687.0 1073.0 L 575.0 1072.0 L 573.0 1069.0 L 574.0 874.0 L 687.0 873.0 L 687.0 666.0 L 575.0 666.0 L 573.0 664.0 L 573.0 461.0 L 575.0 459.0 L 687.0 459.0 L 687.0 253.0 L 575.0 253.0 L 573.0 251.0 L 573.0 42.0 Z" fill="#050607"/>
<path d="M 1106.0 40.0 L 575.0 41.0 L 575.0 252.0 L 688.0 253.0 L 688.0 459.0 L 575.0 460.0 L 574.0 556.0 L 575.0 665.0 L 687.0 665.0 L 689.0 668.0 L 688.0 873.0 L 575.0 874.0 L 575.0 1071.0 L 687.0 1071.0 L 689.0 1073.0 L 688.0 1301.0 L 692.0 1301.0 L 738.0 1285.0 L 766.0 1278.0 L 778.0 1273.0 L 974.0 1220.0 L 1003.0 1209.0 L 1025.0 1198.0 L 1047.0 1184.0 L 1072.0 1161.0 L 1079.0 1153.0 L 1092.0 1132.0 L 1103.0 1107.0 L 1109.0 1068.0 L 1109.0 44.0 Z" fill="#e7c842"/>
<path d="M 137.0 378.0 L 137.0 462.0 L 159.0 481.0 L 308.0 481.0 L 330.0 463.0 L 330.0 377.0 L 321.0 377.0 L 319.0 398.0 L 315.0 408.0 L 286.0 408.0 L 284.0 406.0 L 284.0 376.0 L 254.0 376.0 L 253.0 408.0 L 214.0 408.0 L 212.0 376.0 L 183.0 376.0 L 183.0 406.0 L 181.0 408.0 L 152.0 408.0 L 148.0 399.0 L 146.0 378.0 Z" fill="#e7c842"/>
<path d="M 110.0 849.0 L 110.0 878.0 L 357.0 878.0 L 357.0 849.0 Z" fill="#e7c842"/>
<path d="M 181.0 622.0 L 182.0 672.0 L 287.0 671.0 L 287.0 622.0 Z" fill="#e7c842"/>
<path d="M 182.0 495.0 L 182.0 543.0 L 286.0 543.0 L 286.0 495.0 Z" fill="#e7c842"/>
<path d="M 110.0 893.0 L 110.0 913.0 L 357.0 913.0 L 357.0 893.0 Z" fill="#e7c842"/>
<path d="M 241.0 686.0 L 241.0 723.0 L 252.0 732.0 L 257.0 734.0 L 331.0 734.0 L 326.0 686.0 Z" fill="#e7c842"/>
<path d="M 141.0 687.0 L 137.0 734.0 L 211.0 734.0 L 216.0 730.0 L 222.0 718.0 L 225.0 719.0 L 225.0 726.0 L 226.0 724.0 L 226.0 686.0 Z" fill="#e7c842"/>
<path d="M 155.0 557.0 L 150.0 597.0 L 151.0 608.0 L 226.0 608.0 L 226.0 557.0 Z" fill="#e7c842"/>
<path d="M 241.0 558.0 L 242.0 608.0 L 318.0 607.0 L 313.0 557.0 Z" fill="#e7c842"/>
<path d="M 228.0 768.0 L 222.0 773.0 L 220.0 778.0 L 220.0 835.0 L 247.0 835.0 L 247.0 779.0 L 243.0 771.0 L 239.0 768.0 Z" fill="#e7c842"/>
<path d="M 302.0 748.0 L 302.0 798.0 L 337.0 798.0 L 333.0 749.0 Z" fill="#e7c842"/>
<path d="M 135.0 749.0 L 131.0 798.0 L 165.0 798.0 L 165.0 749.0 Z" fill="#e7c842"/>
<path d="M 301.0 622.0 L 301.0 671.0 L 324.0 672.0 L 325.0 666.0 L 320.0 622.0 Z" fill="#e7c842"/>
<path d="M 148.0 622.0 L 143.0 672.0 L 165.0 672.0 L 166.0 622.0 Z" fill="#e7c842"/>
<path d="M 150.0 813.0 L 150.0 835.0 L 190.0 835.0 L 190.0 813.0 Z" fill="#e7c842"/>
<path d="M 276.0 813.0 L 276.0 835.0 L 314.0 835.0 L 314.0 813.0 Z" fill="#e7c842"/>
<path d="M 259.0 748.0 L 269.0 758.0 L 274.0 766.0 L 276.0 772.0 L 276.0 798.0 L 287.0 798.0 L 287.0 749.0 Z" fill="#e7c842"/>
<path d="M 207.0 748.0 L 180.0 748.0 L 180.0 798.0 L 190.0 798.0 L 190.0 777.0 L 193.0 765.0 L 198.0 757.0 Z" fill="#e7c842"/>
</g>
</svg>