<?xml version="1.0" encoding="UTF-8" standalone="no"?>
<!-- Created with Inkscape (http://www.inkscape.org/) -->

<svg
   xmlns:dc="http://purl.org/dc/elements/1.1/"
   xmlns:cc="http://creativecommons.org/ns#"
   xmlns:rdf="http://www.w3.org/1999/02/22-rdf-syntax-ns#"
   xmlns:svg="http://www.w3.org/2000/svg"
   xmlns="http://www.w3.org/2000/svg"
   xmlns:sodipodi="http://sodipodi.sourceforge.net/DTD/sodipodi-0.dtd"
   xmlns:inkscape="http://www.inkscape.org/namespaces/inkscape"
   width="200"
   height="200"
   viewBox="0 0 52.916666 52.916668"
   version="1.1"
   id="svg1828"
   inkscape:version="0.92.2 5c3e80d, 2017-08-06"
   sodipodi:docname="undefined.svg">
  <defs
     id="defs1822" />
  <sodipodi:namedview
     id="base"
     pagecolor="#ffffff"
     bordercolor="#666666"
     borderopacity="1.0"
     inkscape:pageopacity="0.0"
     inkscape:pageshadow="2"
     inkscape:zoom="2.02"
     inkscape:cx="40.313159"
     inkscape:cy="95.431003"
     inkscape:document-units="mm"
     inkscape:current-layer="g5773"
     showgrid="false"
     units="px"
     fit-margin-right="0.7"
     inkscape:window-width="1362"
     inkscape:window-height="721"
     inkscape:window-x="0"
     inkscape:window-y="22"
     inkscape:window-maximized="0"
     showguides="true"
     inkscape:lockguides="false">
    <inkscape:grid
       type="xygrid"
       id="grid5615" />
  </sodipodi:namedview>
  <metadata
     id="metadata1825">
    <rdf:RDF>
      <cc:Work
         rdf:about="">
        <dc:format>image/svg+xml</dc:format>
        <dc:type
           rdf:resource="http://purl.org/dc/dcmitype/StillImage" />
        <dc:title></dc:title>
      </cc:Work>
    </rdf:RDF>
  </metadata>
  <g
     inkscape:label="Layer 1"
     inkscape:groupmode="layer"
     id="layer1"
     transform="translate(0,-244.08332)"
     style="display:none">
    <g
       transform="matrix(1.6850176,0,0,1.6850176,-701.27718,-1044.9954)"
       id="g1573">
      <path
         style="fill:#ee6f49"
         inkscape:connector-curvature="0"
         d="m 432.043,771.789 c -5.021,0 -9.094,4.072 -9.094,9.094 0,5.023 4.072,9.094 9.094,9.094 5.023,0 9.094,-4.07 9.094,-9.094 0,-5.022 -4.071,-9.094 -9.094,-9.094 z m 0,16.427 c -4.051,0 -7.332,-3.283 -7.332,-7.334 0,-4.049 3.281,-7.332 7.332,-7.332 4.049,0 7.332,3.283 7.332,7.332 0,4.051 -3.283,7.334 -7.332,7.334 z"
         id="path1569" />
      <polygon
         style="fill:#ee6f49"
         points="435.045,785.265 436.361,783.953 433.293,780.884 436.361,777.816 435.045,776.501 431.977,779.57 428.908,776.501 427.594,777.816 430.662,780.884 427.594,783.953 428.908,785.265 431.977,782.199 "
         id="polygon1571" />
    </g>
  </g>
  <g
     style="display:inline"
     transform="translate(0,-244.08332)"
     id="g5775"
     inkscape:groupmode="layer"
     inkscape:label="Layer 1 copy">
    <g
       id="g5773"
       transform="matrix(1.6850176,0,0,1.6850176,-701.27718,-1044.9954)">
      <path
         id="path5769"
         d="m 432.043,771.789 c -5.021,0 -9.094,4.072 -9.094,9.094 0,5.023 4.072,9.094 9.094,9.094 5.023,0 9.094,-4.07 9.094,-9.094 0,-5.022 -4.071,-9.094 -9.094,-9.094 z m 0,16.427 c -4.051,0 -7.332,-3.283 -7.332,-7.334 0,-4.049 3.281,-7.332 7.332,-7.332 4.049,0 7.332,3.283 7.332,7.332 0,4.051 -3.283,7.334 -7.332,7.334 z"
         inkscape:connector-curvature="0"
         style="fill:#808080" />
    </g>
  </g>
  <g
     inkscape:groupmode="layer"
     id="layer2"
     inkscape:label="Layer 2"
     style="display:none">
    <g
       transform="matrix(1.6721654,0,0,1.6721654,-695.86056,-1332.7962)"
       style="opacity:0.4"
       id="g1567">
      <path
         style="fill:#1e1e1c"
         inkscape:connector-curvature="0"
         d="m 421.712,806.696 h -0.068 c -0.236,0 -0.428,0.193 -0.428,0.426 v 2.379 h 0.006 c 0,0.236 -0.189,0.43 -0.426,0.43 h -0.07 c -0.234,0 -0.426,-0.193 -0.426,-0.43 h -0.002 v -2.379 c 0,-0.232 -0.189,-0.426 -0.428,-0.426 h -0.07 c -0.232,0 -0.426,0.193 -0.426,0.426 v 2.379 c 0,0.236 -0.189,0.43 -0.426,0.43 h -0.072 c -0.232,0 -0.426,-0.193 -0.426,-0.43 v -2.379 c 0,-0.232 -0.189,-0.426 -0.426,-0.426 h -0.072 c -0.232,0 -0.426,0.193 -0.426,0.426 v 3.898 c 0,0.156 0.188,0.361 0.188,0.361 l 1.1,1.113 v 5.465 c 0,0.541 0.443,0.982 0.98,0.982 h 0.164 c 0.545,0 0.982,-0.441 0.982,-0.982 v -5.465 l 1.02,-1.041 c 0.066,-0.076 0.18,-0.242 0.18,-0.348 v -3.984 c 0,-0.232 -0.19,-0.425 -0.428,-0.425 z"
         id="path1559" />
      <path
         style="fill:#1e1e1c"
         inkscape:connector-curvature="0"
         d="m 446.151,806.696 c 0,0 -0.492,0 -0.73,0 h -0.723 c -0.934,0 -1.703,0.77 -1.703,1.705 l 0.008,5.01 c 0,0.35 0.334,0.355 0.334,0.355 h 1.088 v 4.193 c 0,0.541 0.443,0.982 0.982,0.982 h 0.164 c 0.543,0 0.988,-0.441 0.988,-0.982 v -3.934 -6.904 c 10e-4,-0.232 -0.171,-0.425 -0.408,-0.425 z"
         id="path1561" />
      <path
         style="fill:#1e1e1c"
         inkscape:connector-curvature="0"
         d="m 432.335,803.985 c -5.021,0 -9.094,4.072 -9.094,9.096 0,5.021 4.072,9.094 9.094,9.094 5.023,0 9.094,-4.072 9.094,-9.094 0,-5.024 -4.071,-9.096 -9.094,-9.096 z m 0,16.428 c -4.051,0 -7.332,-3.283 -7.332,-7.332 0,-4.051 3.281,-7.334 7.332,-7.334 4.049,0 7.332,3.283 7.332,7.334 0,4.048 -3.283,7.332 -7.332,7.332 z"
         id="path1563" />
      <polygon
         style="fill:#1e1e1c"
         points="427.886,816.149 429.2,817.463 432.269,814.395 435.337,817.463 436.653,816.149 433.585,813.081 436.653,810.012 435.337,808.698 432.269,811.766 429.2,808.698 427.886,810.012 430.954,813.081 "
         id="polygon1565" />
    </g>
  </g>
  <g
     inkscape:groupmode="layer"
     id="layer3"
     inkscape:label="Layer 3"
     style="display:none">
    <g
       transform="matrix(1.6722624,0,0,1.6722624,-696.06992,-1386.8953)"
       id="g1533">
      <path
         style="fill:#8cc04d"
         inkscape:connector-curvature="0"
         d="m 421.712,838.893 h -0.071 c -0.233,0 -0.426,0.193 -0.426,0.426 v 2.381 h 0.006 c 0,0.234 -0.188,0.426 -0.425,0.426 h -0.071 c -0.234,0 -0.428,-0.191 -0.428,-0.426 h -0.001 v -2.381 c 0,-0.232 -0.188,-0.426 -0.426,-0.426 h -0.071 c -0.233,0 -0.426,0.193 -0.426,0.426 v 2.381 c 0,0.234 -0.189,0.426 -0.426,0.426 h -0.071 c -0.233,0 -0.427,-0.191 -0.427,-0.426 v -2.381 c 0,-0.232 -0.189,-0.426 -0.425,-0.426 h -0.072 c -0.234,0 -0.425,0.193 -0.425,0.426 v 3.898 c 0,0.156 0.186,0.361 0.186,0.361 l 1.1,1.113 v 5.467 c 0,0.539 0.443,0.98 0.98,0.98 h 0.164 c 0.545,0 0.981,-0.441 0.981,-0.98 v -5.467 l 1.021,-1.041 c 0.065,-0.074 0.18,-0.242 0.18,-0.348 v -3.984 c 0,-0.232 -0.19,-0.425 -0.427,-0.425 z"
         id="path1527" />
      <path
         style="fill:#8cc04d"
         inkscape:connector-curvature="0"
         d="m 446.15,838.893 c 0,0 -0.492,0 -0.729,0 h -0.722 c -0.936,0 -1.705,0.77 -1.705,1.705 l 0.008,5.01 c 0,0.35 0.334,0.355 0.334,0.355 h 1.088 v 4.195 c 0,0.539 0.443,0.98 0.982,0.98 h 0.163 c 0.546,0 0.989,-0.441 0.989,-0.98 v -3.934 -6.906 c 0.001,-0.232 -0.171,-0.425 -0.408,-0.425 z"
         id="path1529" />
      <path
         style="fill:#8cc04d"
         inkscape:connector-curvature="0"
         d="m 432.334,836.182 c -5.022,0 -9.094,4.072 -9.094,9.094 0,5.023 4.071,9.094 9.094,9.094 5.023,0 9.094,-4.07 9.094,-9.094 0,-5.022 -4.072,-9.094 -9.094,-9.094 z m 0,16.428 c -4.049,0 -7.333,-3.283 -7.333,-7.334 0,-4.049 3.284,-7.332 7.333,-7.332 4.049,0 7.332,3.283 7.332,7.332 0,4.051 -3.283,7.334 -7.332,7.334 z"
         id="path1531" />
    </g>
  </g>
  <g
     inkscape:groupmode="layer"
     id="layer4"
     inkscape:label="Layer 4"
     style="display:none">
    <path
       inkscape:connector-curvature="0"
       style="fill:#23a69a;stroke-width:1.43851185"
       d="M 44.77223,32.86739 C 42.299432,25.99274 36.105199,20.907601 28.614864,20.030108 c 0.103574,-0.271899 0.171208,-0.56821 0.171208,-0.876052 0,-1.359393 -1.101901,-2.46417 -2.46705,-2.46417 -1.359394,0 -2.464171,1.104777 -2.464171,2.46417 0,0.309304 0.05899,0.604175 0.162564,0.878934 -7.49033,0.873175 -13.683127,5.95975 -16.1544889,12.8344 H 1.9204377 c 0,1.421248 1.0846334,2.5735 2.4253283,2.5735 h 43.942221 c 1.340695,0 2.425334,-1.152252 2.425334,-2.5735 z M 26.318999,22.38927 c 7.071727,0 13.123545,4.329921 15.67259,10.476685 H 10.656484 C 13.204088,26.716315 19.253031,22.38927 26.318999,22.38927 Z"
       id="path1535" />
  </g>
  <g
     inkscape:groupmode="layer"
     id="layer5"
     inkscape:label="Layer 5"
     style="display:none">
    <path
       inkscape:connector-curvature="0"
       style="fill:#428dcc;stroke-width:1.49749696"
       d="m 31.649566,18.113595 3.126773,-4.492492 c 0.269579,-0.38934 0.302518,-0.898498 0.08087,-1.319295 C 34.638575,11.881 34.201308,11.617456 33.728101,11.617456 H 20.401862 c -0.476218,0 -0.913468,0.263578 -1.133602,0.684352 -0.220111,0.420808 -0.188698,0.929944 0.08388,1.319295 l 3.125274,4.492492 c -7.602795,2.85423 -7.599795,4.63625 -7.599795,5.247229 l -1.597832,17.191268 c 0,0.705322 0.572044,1.275867 1.277367,1.275867 l 25.017184,0.003 c 0.705323,0 1.275867,-0.573539 1.275867,-1.278861 L 39.255372,23.360824 c -0.003,-0.610979 -0.003,-2.391499 -7.605789,-5.247229 z M 31.282696,14.16919 28.87472,17.631399 H 25.253753 L 22.842784,14.16919 Z m 6.771682,25.108529 -21.98176,-0.003 1.355235,-15.729707 c 0.578033,-0.699334 3.556553,-2.169872 6.750719,-3.334925 l -2.07254,3.954886 c -0.32793,0.622961 -0.08687,1.395669 0.537628,1.722122 0.188698,0.09882 0.390868,0.14676 0.593008,0.14676 0.45822,0 0.904493,-0.24858 1.130614,-0.684352 l 2.695494,-5.145404 2.695495,5.145404 c 0.22911,0.43575 0.673871,0.684352 1.133601,0.684352 0.19917,0 0.402811,-0.04641 0.590015,-0.14676 0.624455,-0.32793 0.867053,-1.099161 0.537628,-1.722122 l -2.072602,-3.954886 c 3.194159,1.163554 6.175674,2.635591 6.752213,3.33792 z"
       id="path1537" />
  </g>
</svg>
