<?xml version="1.0" encoding="UTF-8" standalone="no"?>
<!-- Created with Inkscape (http://www.inkscape.org/) -->

<svg
   xmlns:dc="http://purl.org/dc/elements/1.1/"
   xmlns:cc="http://creativecommons.org/ns#"
   xmlns:rdf="http://www.w3.org/1999/02/22-rdf-syntax-ns#"
   xmlns:svg="http://www.w3.org/2000/svg"
   xmlns="http://www.w3.org/2000/svg"
   xmlns:sodipodi="http://sodipodi.sourceforge.net/DTD/sodipodi-0.dtd"
   xmlns:inkscape="http://www.inkscape.org/namespaces/inkscape"
   width="200"
   height="200"
   viewBox="0 0 52.916666 52.916668"
   version="1.1"
   id="svg1828"
   inkscape:version="0.92.2 5c3e80d, 2017-08-06"
   sodipodi:docname="presente.svg">
  <defs
     id="defs1822" />
  <sodipodi:namedview
     id="base"
     pagecolor="#ffffff"
     bordercolor="#666666"
     borderopacity="1.0"
     inkscape:pageopacity="0.0"
     inkscape:pageshadow="2"
     inkscape:zoom="2.02"
     inkscape:cx="40.313159"
     inkscape:cy="94.681754"
     inkscape:document-units="mm"
     inkscape:current-layer="layer3"
     showgrid="false"
     units="px"
     fit-margin-right="0.7"
     inkscape:window-width="1362"
     inkscape:window-height="721"
     inkscape:window-x="0"
     inkscape:window-y="22"
     inkscape:window-maximized="0"
     showguides="true"
     inkscape:lockguides="false">
    <inkscape:grid
       type="xygrid"
       id="grid5615" />
  </sodipodi:namedview>
  <metadata
     id="metadata1825">
    <rdf:RDF>
      <cc:Work
         rdf:about="">
        <dc:format>image/svg+xml</dc:format>
        <dc:type
           rdf:resource="http://purl.org/dc/dcmitype/StillImage" />
        <dc:title></dc:title>
      </cc:Work>
    </rdf:RDF>
  </metadata>
  <g
     inkscape:label="Layer 1"
     inkscape:groupmode="layer"
     id="layer1"
     transform="translate(0,-244.08332)"
     style="display:none">
    <g
       transform="matrix(1.6850176,0,0,1.6850176,-701.27718,-1044.9954)"
       id="g1573">
      <path
         style="fill:#ee6f49"
         inkscape:connector-curvature="0"
         d="m 432.043,771.789 c -5.021,0 -9.094,4.072 -9.094,9.094 0,5.023 4.072,9.094 9.094,9.094 5.023,0 9.094,-4.07 9.094,-9.094 0,-5.022 -4.071,-9.094 -9.094,-9.094 z m 0,16.427 c -4.051,0 -7.332,-3.283 -7.332,-7.334 0,-4.049 3.281,-7.332 7.332,-7.332 4.049,0 7.332,3.283 7.332,7.332 0,4.051 -3.283,7.334 -7.332,7.334 z"
         id="path1569" />
      <polygon
         style="fill:#ee6f49"
         points="430.662,780.884 427.594,783.953 428.908,785.265 431.977,782.199 435.045,785.265 436.361,783.953 433.293,780.884 436.361,777.816 435.045,776.501 431.977,779.57 428.908,776.501 427.594,777.816 "
         id="polygon1571" />
    </g>
  </g>
  <g
     inkscape:groupmode="layer"
     id="layer2"
     inkscape:label="Layer 2"
     style="display:none">
    <g
       transform="matrix(1.6721654,0,0,1.6721654,-695.86056,-1332.7962)"
       style="opacity:0.4"
       id="g1567">
      <path
         style="fill:#1e1e1c"
         inkscape:connector-curvature="0"
         d="m 421.712,806.696 h -0.068 c -0.236,0 -0.428,0.193 -0.428,0.426 v 2.379 h 0.006 c 0,0.236 -0.189,0.43 -0.426,0.43 h -0.07 c -0.234,0 -0.426,-0.193 -0.426,-0.43 h -0.002 v -2.379 c 0,-0.232 -0.189,-0.426 -0.428,-0.426 h -0.07 c -0.232,0 -0.426,0.193 -0.426,0.426 v 2.379 c 0,0.236 -0.189,0.43 -0.426,0.43 h -0.072 c -0.232,0 -0.426,-0.193 -0.426,-0.43 v -2.379 c 0,-0.232 -0.189,-0.426 -0.426,-0.426 h -0.072 c -0.232,0 -0.426,0.193 -0.426,0.426 v 3.898 c 0,0.156 0.188,0.361 0.188,0.361 l 1.1,1.113 v 5.465 c 0,0.541 0.443,0.982 0.98,0.982 h 0.164 c 0.545,0 0.982,-0.441 0.982,-0.982 v -5.465 l 1.02,-1.041 c 0.066,-0.076 0.18,-0.242 0.18,-0.348 v -3.984 c 0,-0.232 -0.19,-0.425 -0.428,-0.425 z"
         id="path1559" />
      <path
         style="fill:#1e1e1c"
         inkscape:connector-curvature="0"
         d="m 446.151,806.696 c 0,0 -0.492,0 -0.73,0 h -0.723 c -0.934,0 -1.703,0.77 -1.703,1.705 l 0.008,5.01 c 0,0.35 0.334,0.355 0.334,0.355 h 1.088 v 4.193 c 0,0.541 0.443,0.982 0.982,0.982 h 0.164 c 0.543,0 0.988,-0.441 0.988,-0.982 v -3.934 -6.904 c 10e-4,-0.232 -0.171,-0.425 -0.408,-0.425 z"
         id="path1561" />
      <path
         style="fill:#1e1e1c"
         inkscape:connector-curvature="0"
         d="m 432.335,803.985 c -5.021,0 -9.094,4.072 -9.094,9.096 0,5.021 4.072,9.094 9.094,9.094 5.023,0 9.094,-4.072 9.094,-9.094 0,-5.024 -4.071,-9.096 -9.094,-9.096 z m 0,16.428 c -4.051,0 -7.332,-3.283 -7.332,-7.332 0,-4.051 3.281,-7.334 7.332,-7.334 4.049,0 7.332,3.283 7.332,7.334 0,4.048 -3.283,7.332 -7.332,7.332 z"
         id="path1563" />
      <polygon
         style="fill:#1e1e1c"
         points="427.886,816.149 429.2,817.463 432.269,814.395 435.337,817.463 436.653,816.149 433.585,813.081 436.653,810.012 435.337,808.698 432.269,811.766 429.2,808.698 427.886,810.012 430.954,813.081 "
         id="polygon1565" />
    </g>
  </g>
  <g
     inkscape:groupmode="layer"
     id="layer3"
     inkscape:label="Layer 3">
    <g
       transform="matrix(1.6722624,0,0,1.6722624,-696.06992,-1386.8953)"
       id="g1533">
      <path
         style="fill:#8cc04d"
         inkscape:connector-curvature="0"
         d="m 421.712,838.893 h -0.071 c -0.233,0 -0.426,0.193 -0.426,0.426 v 2.381 h 0.006 c 0,0.234 -0.188,0.426 -0.425,0.426 h -0.071 c -0.234,0 -0.428,-0.191 -0.428,-0.426 h -0.001 v -2.381 c 0,-0.232 -0.188,-0.426 -0.426,-0.426 h -0.071 c -0.233,0 -0.426,0.193 -0.426,0.426 v 2.381 c 0,0.234 -0.189,0.426 -0.426,0.426 h -0.071 c -0.233,0 -0.427,-0.191 -0.427,-0.426 v -2.381 c 0,-0.232 -0.189,-0.426 -0.425,-0.426 h -0.072 c -0.234,0 -0.425,0.193 -0.425,0.426 v 3.898 c 0,0.156 0.186,0.361 0.186,0.361 l 1.1,1.113 v 5.467 c 0,0.539 0.443,0.98 0.98,0.98 h 0.164 c 0.545,0 0.981,-0.441 0.981,-0.98 v -5.467 l 1.021,-1.041 c 0.065,-0.074 0.18,-0.242 0.18,-0.348 v -3.984 c 0,-0.232 -0.19,-0.425 -0.427,-0.425 z"
         id="path1527" />
      <path
         style="fill:#8cc04d"
         inkscape:connector-curvature="0"
         d="m 446.15,838.893 c 0,0 -0.492,0 -0.729,0 h -0.722 c -0.936,0 -1.705,0.77 -1.705,1.705 l 0.008,5.01 c 0,0.35 0.334,0.355 0.334,0.355 h 1.088 v 4.195 c 0,0.539 0.443,0.98 0.982,0.98 h 0.163 c 0.546,0 0.989,-0.441 0.989,-0.98 v -3.934 -6.906 c 0.001,-0.232 -0.171,-0.425 -0.408,-0.425 z"
         id="path1529" />
      <path
         style="fill:#8cc04d"
         inkscape:connector-curvature="0"
         d="m 432.334,836.182 c -5.022,0 -9.094,4.072 -9.094,9.094 0,5.023 4.071,9.094 9.094,9.094 5.023,0 9.094,-4.07 9.094,-9.094 0,-5.022 -4.072,-9.094 -9.094,-9.094 z m 0,16.428 c -4.049,0 -7.333,-3.283 -7.333,-7.334 0,-4.049 3.284,-7.332 7.333,-7.332 4.049,0 7.332,3.283 7.332,7.332 0,4.051 -3.283,7.334 -7.332,7.334 z"
         id="path1531" />
    </g>
  </g>
</svg>
