<?xml version="1.0" encoding="UTF-8" standalone="no"?>
<!DOCTYPE svg PUBLIC "-//W3C//DTD SVG 20010904//EN"
              "http://www.w3.org/TR/2001/REC-SVG-20010904/DTD/svg10.dtd">

<svg xmlns="http://www.w3.org/2000/svg"
    width="200" height="200"
	viewBox="0 0 200 200">
	<path id="circle"
        fill="#8cc04d"
        d="M 101.69,43.16
           C 69.95,43.16 44.21,68.90 44.21,100.64
             44.21,132.39 69.94,158.12 101.69,158.12
             133.44,158.12 159.17,132.39 159.17,100.64
             159.17,68.90 133.43,43.16 101.69,43.16 Z
           M 101.69,146.99
           C 76.10,146.99 55.34,126.24 55.34,100.64
             55.34,75.05 76.10,54.30 101.69,54.30
             127.28,54.30 148.03,75.05 148.03,100.64
             148.03,126.24 127.28,146.99 101.69,146.99 Z
           M 34.56,60.30
           C 34.56,60.30 34.11,60.30 34.11,60.30
             32.64,60.30 31.42,61.52 31.42,62.99
             31.42,62.99 31.42,78.04 31.42,78.04
             31.42,78.04 31.45,78.04 31.45,78.04
             31.45,79.52 30.27,80.73 28.77,80.73
             28.77,80.73 28.32,80.73 28.32,80.73
             26.84,80.73 25.61,79.52 25.61,78.04
             25.61,78.04 25.61,78.04 25.61,78.04
             25.61,78.04 25.61,62.99 25.61,62.99
             25.61,61.52 24.42,60.30 22.91,60.30
             22.91,60.30 22.47,60.30 22.47,60.30
             20.99,60.30 19.77,61.52 19.77,62.99
             19.77,62.99 19.77,78.04 19.77,78.04
             19.77,79.52 18.58,80.73 17.08,80.73
             17.08,80.73 16.63,80.73 16.63,80.73
             15.16,80.73 13.93,79.52 13.93,78.04
             13.93,78.04 13.93,62.99 13.93,62.99
             13.93,61.52 12.74,60.30 11.25,60.30
             11.25,60.30 10.79,60.30 10.79,60.30
             9.31,60.30 8.11,61.52 8.11,62.99
             8.11,62.99 8.11,87.63 8.11,87.63
             8.11,88.61 9.28,89.91 9.28,89.91
             9.28,89.91 16.23,96.94 16.23,96.94
             16.23,96.94 16.23,131.50 16.23,131.50
             16.23,134.90 19.03,137.69 22.43,137.69
             22.43,137.69 23.46,137.69 23.46,137.69
             26.91,137.69 29.67,134.90 29.67,131.50
             29.67,131.50 29.67,96.94 29.67,96.94
             29.67,96.94 36.12,90.36 36.12,90.36
             36.53,89.90 37.26,88.83 37.26,88.16
             37.26,88.16 37.26,62.98 37.26,62.98
             37.26,61.52 36.05,60.30 34.56,60.30
             34.56,60.30 34.56,60.30 34.56,60.30 Z
           M 87.00,91.00
           C 89.01,91.00 92.87,91.18 94.63,90.43
             97.08,89.38 98.59,86.12 101.57,86.11
             104.45,86.11 107.65,89.76 104.31,95.00
             98.72,103.78 88.20,107.03 86.00,121.00
             86.00,121.00 116.00,121.00 116.00,121.00
             116.00,121.00 116.00,113.00 116.00,113.00
             116.00,113.00 100.00,113.00 100.00,113.00
             103.83,109.17 111.17,102.44 113.59,98.00
             114.52,96.28 115.37,93.94 115.66,92.00
             116.92,83.54 111.09,78.25 103.00,78.02
             100.14,77.93 96.59,77.86 94.00,79.17
             88.98,81.73 87.49,85.78 87.00,91.00 Z
           M 189.65,60.97
           C 189.65,60.97 186.54,60.97 185.03,60.97
             185.03,60.97 180.47,60.97 180.47,60.97
             174.56,60.97 169.70,65.84 169.70,71.75
             169.70,71.75 169.75,103.41 169.75,103.41
             169.75,105.63 171.86,105.66 171.86,105.66
             171.86,105.66 178.74,105.66 178.74,105.66
             178.74,105.66 178.74,132.16 178.74,132.16
             178.74,135.58 181.54,138.36 184.95,138.36
             184.95,138.36 185.98,138.36 185.98,138.36
             189.41,138.36 192.23,135.58 192.23,132.16
             192.23,132.16 192.23,107.29 192.23,107.29
             192.23,107.29 192.23,63.66 192.23,63.66
             192.23,62.19 191.15,60.97 189.65,60.97
             189.65,60.97 189.65,60.97 189.65,60.97 Z" />
</svg>
